<mxfile host="app.diagrams.net" modified="2023-11-18T06:01:03.458Z" agent="Mozilla/5.0 (Windows NT 10.0; Win64; x64) AppleWebKit/537.36 (KHTML, like Gecko) Chrome/119.0.0.0 Safari/537.36" etag="jdB-2RX-rJbs-ukwke3W" version="22.1.3" type="github">
  <diagram name="Page-1" id="nxGTMKs_w1kIFgjc0gcX">
    <mxGraphModel dx="1588" dy="928" grid="1" gridSize="10" guides="1" tooltips="1" connect="1" arrows="1" fold="1" page="1" pageScale="1" pageWidth="850" pageHeight="1100" math="0" shadow="0">
      <root>
        <mxCell id="0" />
        <mxCell id="1" parent="0" />
        <mxCell id="18eb84IOYcn1FVdQ_SkL-1" value="End User" style="rounded=1;whiteSpace=wrap;html=1;" vertex="1" parent="1">
          <mxGeometry x="280" y="90" width="120" height="60" as="geometry" />
        </mxCell>
        <mxCell id="18eb84IOYcn1FVdQ_SkL-2" value="Sign up" style="ellipse;whiteSpace=wrap;html=1;" vertex="1" parent="1">
          <mxGeometry x="480" y="170" width="120" height="40" as="geometry" />
        </mxCell>
        <mxCell id="18eb84IOYcn1FVdQ_SkL-3" value="Search the Properties" style="rounded=0;whiteSpace=wrap;html=1;" vertex="1" parent="1">
          <mxGeometry x="280" y="220" width="120" height="60" as="geometry" />
        </mxCell>
        <mxCell id="18eb84IOYcn1FVdQ_SkL-4" value="Information Page 1(Text view)" style="shape=hexagon;perimeter=hexagonPerimeter2;whiteSpace=wrap;html=1;fixedSize=1;" vertex="1" parent="1">
          <mxGeometry x="270" y="340" width="120" height="80" as="geometry" />
        </mxCell>
        <mxCell id="18eb84IOYcn1FVdQ_SkL-5" value="Information Page 2 (Image view)" style="shape=parallelogram;perimeter=parallelogramPerimeter;whiteSpace=wrap;html=1;fixedSize=1;" vertex="1" parent="1">
          <mxGeometry x="270" y="470" width="140" height="60" as="geometry" />
        </mxCell>
        <mxCell id="18eb84IOYcn1FVdQ_SkL-7" value="Sign UP" style="ellipse;whiteSpace=wrap;html=1;" vertex="1" parent="1">
          <mxGeometry x="260" y="590" width="120" height="80" as="geometry" />
        </mxCell>
        <mxCell id="18eb84IOYcn1FVdQ_SkL-8" value="Landing Page(result page)" style="rounded=1;whiteSpace=wrap;html=1;" vertex="1" parent="1">
          <mxGeometry x="260" y="750" width="120" height="60" as="geometry" />
        </mxCell>
        <mxCell id="18eb84IOYcn1FVdQ_SkL-9" value="" style="rounded=1;whiteSpace=wrap;html=1;" vertex="1" parent="1">
          <mxGeometry x="700" y="750" width="120" height="60" as="geometry" />
        </mxCell>
        <mxCell id="18eb84IOYcn1FVdQ_SkL-10" value="" style="rounded=0;whiteSpace=wrap;html=1;" vertex="1" parent="1">
          <mxGeometry x="580" y="890" width="120" height="60" as="geometry" />
        </mxCell>
        <mxCell id="18eb84IOYcn1FVdQ_SkL-11" value="" style="rounded=0;whiteSpace=wrap;html=1;" vertex="1" parent="1">
          <mxGeometry x="790" y="880" width="120" height="60" as="geometry" />
        </mxCell>
        <mxCell id="18eb84IOYcn1FVdQ_SkL-12" value="" style="rounded=0;whiteSpace=wrap;html=1;" vertex="1" parent="1">
          <mxGeometry x="1030" y="880" width="120" height="60" as="geometry" />
        </mxCell>
        <mxCell id="18eb84IOYcn1FVdQ_SkL-13" value="" style="rounded=0;whiteSpace=wrap;html=1;" vertex="1" parent="1">
          <mxGeometry x="1280" y="870" width="120" height="60" as="geometry" />
        </mxCell>
        <mxCell id="18eb84IOYcn1FVdQ_SkL-15" value="" style="whiteSpace=wrap;html=1;aspect=fixed;" vertex="1" parent="1">
          <mxGeometry x="270" y="860" width="80" height="80" as="geometry" />
        </mxCell>
        <mxCell id="18eb84IOYcn1FVdQ_SkL-16" value="" style="endArrow=classic;html=1;rounded=0;exitX=0.5;exitY=1;exitDx=0;exitDy=0;entryX=0.5;entryY=0;entryDx=0;entryDy=0;" edge="1" parent="1" source="18eb84IOYcn1FVdQ_SkL-1" target="18eb84IOYcn1FVdQ_SkL-3">
          <mxGeometry width="50" height="50" relative="1" as="geometry">
            <mxPoint x="400" y="320" as="sourcePoint" />
            <mxPoint x="450" y="270" as="targetPoint" />
          </mxGeometry>
        </mxCell>
        <mxCell id="18eb84IOYcn1FVdQ_SkL-17" value="" style="endArrow=classic;html=1;rounded=0;entryX=0;entryY=0.5;entryDx=0;entryDy=0;" edge="1" parent="1" target="18eb84IOYcn1FVdQ_SkL-2">
          <mxGeometry width="50" height="50" relative="1" as="geometry">
            <mxPoint x="340" y="190" as="sourcePoint" />
            <mxPoint x="450" y="270" as="targetPoint" />
          </mxGeometry>
        </mxCell>
        <mxCell id="18eb84IOYcn1FVdQ_SkL-18" value="" style="endArrow=classic;html=1;rounded=0;exitX=0.5;exitY=1;exitDx=0;exitDy=0;entryX=0.581;entryY=0.005;entryDx=0;entryDy=0;entryPerimeter=0;" edge="1" parent="1" source="18eb84IOYcn1FVdQ_SkL-3" target="18eb84IOYcn1FVdQ_SkL-4">
          <mxGeometry width="50" height="50" relative="1" as="geometry">
            <mxPoint x="400" y="420" as="sourcePoint" />
            <mxPoint x="450" y="370" as="targetPoint" />
          </mxGeometry>
        </mxCell>
        <mxCell id="18eb84IOYcn1FVdQ_SkL-19" value="" style="endArrow=classic;html=1;rounded=0;exitX=0.5;exitY=1;exitDx=0;exitDy=0;entryX=0.428;entryY=0.048;entryDx=0;entryDy=0;entryPerimeter=0;" edge="1" parent="1" source="18eb84IOYcn1FVdQ_SkL-4" target="18eb84IOYcn1FVdQ_SkL-5">
          <mxGeometry width="50" height="50" relative="1" as="geometry">
            <mxPoint x="410" y="590" as="sourcePoint" />
            <mxPoint x="460" y="540" as="targetPoint" />
          </mxGeometry>
        </mxCell>
        <mxCell id="18eb84IOYcn1FVdQ_SkL-20" value="" style="endArrow=classic;html=1;rounded=0;exitX=0.406;exitY=0.999;exitDx=0;exitDy=0;exitPerimeter=0;entryX=0.57;entryY=0.055;entryDx=0;entryDy=0;entryPerimeter=0;" edge="1" parent="1" source="18eb84IOYcn1FVdQ_SkL-5" target="18eb84IOYcn1FVdQ_SkL-7">
          <mxGeometry width="50" height="50" relative="1" as="geometry">
            <mxPoint x="430" y="590" as="sourcePoint" />
            <mxPoint x="480" y="540" as="targetPoint" />
          </mxGeometry>
        </mxCell>
      </root>
    </mxGraphModel>
  </diagram>
</mxfile>
